<mxfile host="app.diagrams.net" modified="2022-12-13T16:06:02.608Z" agent="5.0 (Windows NT 10.0; Win64; x64) AppleWebKit/537.36 (KHTML, like Gecko) Chrome/107.0.0.0 Safari/537.36 OPR/93.0.0.0" version="20.6.2" etag="CXMdT2RHvtI-8020FO_9" type="github">
  <diagram id="TsRcCtf1RaxAwgEqBZrm" name="Sivu-1">
    <mxGraphModel dx="742" dy="438" grid="1" gridSize="10" guides="1" tooltips="1" connect="1" arrows="1" fold="1" page="1" pageScale="1" pageWidth="827" pageHeight="1169" math="0" shadow="0">
      <root>
        <mxCell id="0" />
        <mxCell id="1" parent="0" />
        <mxCell id="FznTqZh3daUMDlsJzQD_-3" value="" style="edgeStyle=orthogonalEdgeStyle;rounded=0;orthogonalLoop=1;jettySize=auto;html=1;fontSize=18;" edge="1" parent="1" source="FznTqZh3daUMDlsJzQD_-1" target="FznTqZh3daUMDlsJzQD_-2">
          <mxGeometry relative="1" as="geometry" />
        </mxCell>
        <mxCell id="FznTqZh3daUMDlsJzQD_-1" value="&lt;font style=&quot;font-size: 18px;&quot;&gt;Alku&lt;/font&gt;" style="ellipse;whiteSpace=wrap;html=1;" vertex="1" parent="1">
          <mxGeometry x="50" y="20" width="230" height="80" as="geometry" />
        </mxCell>
        <mxCell id="FznTqZh3daUMDlsJzQD_-5" value="" style="edgeStyle=orthogonalEdgeStyle;rounded=0;orthogonalLoop=1;jettySize=auto;html=1;fontSize=18;" edge="1" parent="1" source="FznTqZh3daUMDlsJzQD_-2" target="FznTqZh3daUMDlsJzQD_-4">
          <mxGeometry relative="1" as="geometry" />
        </mxCell>
        <mxCell id="FznTqZh3daUMDlsJzQD_-2" value="Luo taulukkomuuttuja &lt;br&gt;[&lt;span&gt;34, 566, 71, 89]&lt;/span&gt;" style="shape=parallelogram;perimeter=parallelogramPerimeter;whiteSpace=wrap;html=1;fixedSize=1;fontSize=18;" vertex="1" parent="1">
          <mxGeometry x="20" y="150" width="290" height="60" as="geometry" />
        </mxCell>
        <mxCell id="FznTqZh3daUMDlsJzQD_-7" value="" style="edgeStyle=orthogonalEdgeStyle;rounded=0;orthogonalLoop=1;jettySize=auto;html=1;fontSize=18;" edge="1" parent="1" source="FznTqZh3daUMDlsJzQD_-4" target="FznTqZh3daUMDlsJzQD_-6">
          <mxGeometry relative="1" as="geometry" />
        </mxCell>
        <mxCell id="FznTqZh3daUMDlsJzQD_-4" value="Lue taulukkomuuttujan ensimmÃ¤inen elementti &lt;br&gt;( Index 0 = 34 )" style="rounded=0;whiteSpace=wrap;html=1;fontSize=18;" vertex="1" parent="1">
          <mxGeometry x="25" y="260" width="280" height="60" as="geometry" />
        </mxCell>
        <mxCell id="FznTqZh3daUMDlsJzQD_-9" value="" style="edgeStyle=orthogonalEdgeStyle;rounded=0;orthogonalLoop=1;jettySize=auto;html=1;fontSize=18;" edge="1" parent="1" source="FznTqZh3daUMDlsJzQD_-6" target="FznTqZh3daUMDlsJzQD_-8">
          <mxGeometry relative="1" as="geometry" />
        </mxCell>
        <mxCell id="FznTqZh3daUMDlsJzQD_-6" value="Tulosta elementti" style="shape=parallelogram;perimeter=parallelogramPerimeter;whiteSpace=wrap;html=1;fixedSize=1;fontSize=18;rounded=0;" vertex="1" parent="1">
          <mxGeometry x="20" y="380" width="290" height="60" as="geometry" />
        </mxCell>
        <mxCell id="FznTqZh3daUMDlsJzQD_-8" value="Loppu" style="ellipse;whiteSpace=wrap;html=1;fontSize=18;" vertex="1" parent="1">
          <mxGeometry x="75" y="480" width="180" height="80" as="geometry" />
        </mxCell>
      </root>
    </mxGraphModel>
  </diagram>
</mxfile>
